<svg width="21" height="27" viewBox="0 0 21 27" fill="none" xmlns="http://www.w3.org/2000/svg">
<path d="M6.76598 17.1418H6.76694C6.76774 17.1418 6.76854 17.1416 6.76934 17.1416H17.9238C18.1984 17.1416 18.4399 16.9161 18.5153 16.5892L20.9763 5.92509C21.0293 5.69519 20.9921 5.44803 20.876 5.2572C20.7597 5.06638 20.5778 4.9541 20.3848 4.9541H5.34709L4.90729 2.50371C4.84465 2.15518 4.59503 1.90723 4.30664 1.90723H0.615234C0.275413 1.90723 0 2.24821 0 2.66895C0 3.08968 0.275413 3.43066 0.615234 3.43066H3.81317C3.89104 3.86488 5.91779 15.157 6.03442 15.8066C5.38058 16.1585 4.92187 16.9657 4.92187 17.9033C4.92187 19.1633 5.74988 20.1885 6.76758 20.1885H17.9238C18.2636 20.1885 18.5391 19.8475 18.5391 19.4268C18.5391 19.006 18.2636 18.665 17.9238 18.665H6.76758C6.4284 18.665 6.15234 18.3233 6.15234 17.9033C6.15234 17.484 6.42744 17.1428 6.76598 17.1418ZM19.5691 6.47754L17.4597 15.6182H7.26105L5.62042 6.47754H19.5691Z" fill="black"/>
<path d="M6.15234 22.4736C6.15234 23.7336 6.98035 24.7588 7.99805 24.7588C9.01575 24.7588 9.84375 23.7336 9.84375 22.4736C9.84375 21.2136 9.01575 20.1885 7.99805 20.1885C6.98035 20.1885 6.15234 21.2136 6.15234 22.4736ZM7.99805 21.7119C8.33723 21.7119 8.61328 22.0537 8.61328 22.4736C8.61328 22.8936 8.33723 23.2353 7.99805 23.2353C7.65887 23.2353 7.38281 22.8936 7.38281 22.4736C7.38281 22.0537 7.65887 21.7119 7.99805 21.7119Z" fill="black"/>
<path d="M14.8477 22.4736C14.8477 23.7336 15.6757 24.7588 16.6934 24.7588C17.7111 24.7588 18.5391 23.7336 18.5391 22.4736C18.5391 21.2136 17.7111 20.1885 16.6934 20.1885C15.6757 20.1885 14.8477 21.2136 14.8477 22.4736ZM16.6934 21.7119C17.0325 21.7119 17.3086 22.0537 17.3086 22.4736C17.3086 22.8936 17.0325 23.2353 16.6934 23.2353C16.3542 23.2353 16.0781 22.8936 16.0781 22.4736C16.0781 22.0537 16.3542 21.7119 16.6934 21.7119Z" fill="black"/>
</svg>
